<?xml version="1.0" standalone="no"?>
<!DOCTYPE svg PUBLIC "-//W3C//DTD SVG 20010904//EN"
 "http://www.w3.org/TR/2001/REC-SVG-20010904/DTD/svg10.dtd">
<svg version="1.0" xmlns="http://www.w3.org/2000/svg"
 width="1080.000000pt" height="1776.000000pt" viewBox="0 0 1080.000000 1776.000000"
 preserveAspectRatio="xMidYMid meet">

<g transform="translate(0.000000,1776.000000) scale(0.100000,-0.100000)"
fill="#000000" stroke="none">
<path d="M0 13120 l0 -4639 58 -43 c31 -23 84 -64 117 -91 33 -27 74 -54 90
-62 32 -14 75 -53 140 -129 49 -57 78 -107 196 -336 36 -69 78 -145 95 -170
39 -57 48 -84 32 -97 -7 -6 -46 -13 -86 -17 -65 -5 -79 -3 -125 19 -49 23
-159 101 -182 128 -5 7 -23 22 -38 34 -32 25 -76 83 -105 139 -39 74 -72 98
-164 118 l-28 6 0 -192 0 -192 48 47 c26 26 55 47 65 47 9 0 54 -33 99 -73 46
-40 99 -84 118 -97 19 -13 49 -35 65 -50 17 -15 48 -33 70 -40 22 -6 49 -15
60 -20 40 -16 51 -17 114 -9 122 17 237 61 265 101 25 35 19 63 -21 112 -49
58 -74 93 -97 136 -10 19 -41 68 -68 108 -27 41 -58 97 -68 125 -9 29 -34 76
-54 106 -20 29 -36 61 -36 71 0 22 78 95 155 145 83 53 155 83 347 148 139 47
181 57 265 63 72 5 106 3 123 -6 26 -14 129 -95 145 -114 14 -16 132 -96 143
-96 4 0 24 -12 43 -26 19 -14 96 -57 171 -95 75 -38 141 -77 146 -86 5 -10 12
-34 16 -53 16 -83 179 -286 286 -355 19 -12 44 -32 54 -44 11 -11 23 -21 27
-21 5 0 47 -25 94 -55 47 -31 109 -66 138 -79 57 -25 95 -59 129 -115 29 -47
110 -156 168 -226 14 -16 39 -50 55 -74 59 -88 327 -341 361 -341 20 0 74 -50
74 -68 0 -10 -7 -48 -16 -87 -31 -136 -44 -201 -55 -265 -26 -154 -37 -208
-51 -255 -25 -80 -48 -252 -49 -365 -1 -58 -8 -152 -16 -210 -8 -58 -17 -118
-19 -135 -7 -47 -16 -55 -85 -66 -88 -14 -221 -61 -323 -114 -46 -24 -118 -58
-158 -75 -40 -17 -82 -35 -93 -40 -41 -19 -178 -60 -201 -60 -12 0 -53 -7 -90
-16 -43 -10 -156 -18 -313 -24 -135 -5 -264 -13 -286 -19 -22 -5 -83 -12 -135
-15 -52 -3 -131 -12 -175 -20 -44 -9 -99 -15 -122 -16 -23 0 -54 -5 -70 -11
-15 -6 -53 -15 -83 -20 -51 -9 -108 -24 -189 -51 -42 -13 -133 -34 -223 -51
-99 -19 -106 -4 -63 130 14 43 25 84 25 91 0 8 6 28 14 45 60 131 110 280 118
352 4 44 19 109 33 145 36 97 43 135 51 250 3 58 12 130 19 160 7 30 23 116
35 190 11 74 28 178 37 230 8 52 19 127 24 165 4 39 13 104 19 145 12 88 8
116 -21 125 -31 10 -62 -27 -88 -103 -11 -34 -21 -69 -21 -77 0 -9 -9 -40 -19
-70 -10 -29 -22 -73 -26 -97 -8 -44 -18 -58 -46 -58 -12 0 -28 35 -59 128 -23
70 -51 145 -61 168 -11 22 -19 48 -19 57 0 9 -4 18 -9 22 -5 3 -17 29 -27 58
-9 28 -20 54 -23 57 -4 3 -19 31 -35 62 -40 84 -95 120 -125 84 -17 -21 -5
-73 36 -153 68 -134 116 -318 148 -563 9 -69 20 -155 25 -192 6 -37 7 -87 4
-111 l-6 -45 -28 32 c-15 17 -47 65 -71 106 -94 161 -249 270 -249 175 0 -14
5 -31 10 -38 71 -84 135 -227 163 -362 8 -38 30 -126 48 -195 29 -106 34 -141
33 -230 -1 -89 -5 -120 -33 -205 -17 -55 -40 -131 -51 -170 -10 -38 -33 -119
-50 -180 -17 -60 -38 -137 -45 -170 -8 -33 -28 -107 -46 -165 l-31 -105 -9
-350 c-4 -192 -13 -380 -19 -418 -6 -37 -15 -221 -20 -410 -5 -188 -14 -398
-20 -467 -6 -69 -15 -251 -21 -405 -5 -154 -14 -329 -19 -390 -12 -149 -11
-1197 1 -1415 5 -96 12 -266 16 -378 l5 -203 102 3 101 3 -1 95 c-1 52 -4 471
-8 930 -7 873 -6 885 34 885 8 0 53 -19 100 -43 47 -24 110 -50 140 -57 30 -7
82 -20 115 -30 202 -56 312 -82 450 -105 28 -5 95 -9 150 -9 55 -1 145 -8 200
-17 60 -9 201 -17 350 -20 138 -2 288 -9 335 -14 146 -17 506 -23 650 -11 74
6 320 16 545 21 226 5 433 15 460 21 72 15 514 24 527 11 13 -13 23 -186 14
-235 -4 -22 -14 -38 -25 -42 -10 -3 -65 5 -122 19 -88 20 -140 25 -336 30
-271 6 -283 4 -331 -71 -17 -26 -49 -93 -70 -148 -67 -168 -264 -587 -295
-623 -6 -8 -16 -24 -22 -35 -6 -12 -18 -23 -27 -25 -26 -5 -31 46 -23 280 11
352 11 335 -11 365 -11 16 -37 37 -59 47 -33 17 -45 18 -99 8 -43 -8 -84 -8
-141 -1 -117 15 -279 16 -370 1 -205 -33 -228 -40 -264 -85 l-24 -29 26 -132
c14 -72 29 -187 32 -256 4 -69 13 -172 21 -229 8 -58 14 -170 14 -250 0 -80 3
-170 6 -199 l7 -52 841 0 841 0 38 88 c21 48 49 110 62 137 13 28 31 68 38 90
8 22 33 84 56 139 23 54 50 124 61 155 10 31 33 92 50 136 18 44 47 123 66
175 33 90 59 129 75 113 9 -10 19 -409 19 -760 l0 -273 65 0 65 0 0 303 c-1
166 -5 376 -11 467 -5 91 -12 419 -14 730 -5 447 -3 592 9 695 12 117 14 123
15 60 1 -38 8 -110 17 -160 8 -49 17 -178 20 -285 3 -107 9 -274 15 -370 5
-96 14 -391 18 -655 5 -264 15 -549 22 -632 l13 -153 367 0 366 0 12 72 c18
110 30 399 31 723 0 320 -7 391 -43 439 -32 41 -110 83 -172 91 -27 4 -75 13
-105 20 -96 23 -183 35 -263 36 -111 2 -117 11 -117 181 0 124 1 129 22 138
13 5 147 16 299 25 241 13 286 13 345 1 38 -8 92 -17 119 -21 28 -3 58 -13 69
-20 19 -15 67 -168 86 -278 27 -150 88 -237 211 -300 58 -30 82 -37 130 -37
50 0 60 -3 70 -22 13 -23 6 -440 -11 -663 -5 -66 -12 -180 -16 -253 l-6 -132
816 0 c667 0 816 2 816 13 0 22 -52 65 -98 81 -24 9 -108 20 -187 26 -214 15
-225 22 -201 127 19 84 39 103 110 103 62 0 206 -23 277 -44 29 -9 77 -16 106
-16 47 0 58 4 92 35 35 32 40 42 46 98 9 89 13 99 38 95 23 -3 37 -35 107
-248 34 -106 48 -153 68 -235 l8 -30 743 -3 743 -2 -6 27 c-4 16 -11 91 -16
168 -5 77 -16 169 -24 205 -17 73 -41 485 -41 690 0 115 3 143 22 190 11 30
33 96 48 145 15 50 37 113 50 140 27 58 75 195 75 216 0 8 7 28 16 44 9 17 25
55 36 85 34 93 85 211 141 325 30 61 58 121 62 134 4 14 20 45 35 70 56 93
133 244 200 391 11 25 44 90 74 145 30 55 76 143 102 195 25 52 59 120 74 150
15 30 39 91 53 135 36 115 65 177 80 173 23 -8 40 -62 45 -149 l5 -87 -51 -37
c-51 -36 -71 -68 -123 -197 -10 -26 -34 -80 -54 -119 -19 -39 -35 -80 -35 -91
0 -11 -7 -34 -15 -51 -24 -52 -65 -313 -65 -415 l0 -94 -84 -127 c-46 -69 -96
-153 -112 -186 -15 -33 -61 -116 -102 -185 -42 -69 -93 -162 -115 -208 l-40
-83 20 -21 c27 -27 44 -17 122 71 34 38 81 90 104 115 23 25 58 64 77 87 70
81 129 139 134 131 7 -12 -3 -109 -20 -187 -8 -38 -38 -122 -65 -187 -27 -64
-49 -126 -49 -138 0 -11 -6 -33 -14 -48 -21 -42 -54 -216 -61 -322 -4 -60 -13
-108 -24 -130 -10 -19 -23 -51 -30 -71 -9 -30 -51 -95 -98 -154 -61 -77 -111
-196 -124 -299 -6 -38 -14 -77 -20 -87 -5 -11 -13 -96 -16 -189 l-6 -170 105
0 105 0 6 177 c7 171 18 253 36 253 15 0 28 -23 42 -70 34 -122 119 -117 119
7 0 32 5 65 10 73 9 13 12 12 25 -4 8 -11 15 -27 15 -35 0 -9 6 -27 13 -41 7
-14 19 -47 27 -75 15 -54 41 -104 77 -148 13 -16 23 -34 23 -40 0 -7 19 -31
41 -55 37 -39 44 -42 90 -42 50 0 51 1 45 26 -4 14 -16 45 -27 68 -35 74 -116
411 -118 489 -1 23 3 27 25 27 14 0 53 -14 87 -30 33 -17 72 -30 86 -28 22 3
26 8 25 33 -3 58 -68 148 -195 266 -66 62 -127 126 -135 141 -16 32 -18 110
-4 170 53 220 118 404 148 415 19 8 48 -23 60 -65 6 -21 20 -47 29 -57 10 -11
33 -43 50 -71 60 -93 104 -116 128 -67 13 26 -5 167 -31 247 -22 67 -92 265
-103 291 -54 131 -84 454 -64 709 7 94 19 190 27 215 8 25 17 58 20 72 10 46
57 139 71 139 17 0 34 -49 70 -210 9 -36 22 -83 30 -105 13 -36 14 10 15 446
0 478 0 487 -25 613 -14 70 -25 155 -25 189 0 34 -9 97 -19 142 -20 82 -52
316 -51 370 1 56 -19 370 -29 465 -6 52 -8 124 -4 160 6 58 10 69 50 111 32
34 49 45 64 42 25 -7 29 -25 32 -163 1 -63 4 23 5 191 l2 307 -52 22 c-69 30
-197 40 -216 17 -22 -26 10 -59 103 -105 76 -38 85 -45 85 -70 0 -70 -177
-226 -250 -220 l-35 3 -6 70 c-25 275 -52 452 -89 575 -6 19 -17 66 -25 104
l-14 68 34 52 c45 69 98 110 162 126 44 12 65 11 155 -4 56 -9 113 -19 126
-22 21 -4 22 -2 22 66 l0 70 -35 1 c-19 1 -39 3 -45 4 -5 1 -52 3 -103 4 -149
2 -160 27 -57 131 84 85 210 266 210 302 0 8 7 23 15 34 10 13 14 45 15 106 0
85 -1 88 -24 94 -33 8 -64 -3 -77 -28 -6 -11 -22 -60 -35 -109 -31 -117 -88
-209 -192 -311 -81 -80 -116 -133 -141 -210 -7 -22 -28 -49 -54 -70 -61 -49
-87 -79 -87 -100 0 -26 -23 -69 -52 -94 -58 -53 -162 -76 -201 -44 l-22 18 23
69 c13 37 28 77 32 88 18 40 76 254 90 330 21 112 79 306 106 350 6 11 15 31
19 44 10 33 73 141 100 171 13 14 31 41 40 60 10 19 21 37 24 40 13 10 79 116
116 185 20 39 51 88 69 110 18 22 44 61 59 87 15 25 50 72 79 103 52 57 62 61
111 40 16 -7 17 39 17 878 0 855 -1 886 -19 892 -24 7 -76 115 -90 190 -7 33
-21 98 -32 145 -11 47 -26 171 -34 275 -8 105 -18 240 -23 300 -5 61 -7 218
-6 350 3 251 6 271 54 364 10 20 26 56 36 81 10 25 26 56 36 69 10 13 18 28
18 33 0 5 14 29 30 53 l30 44 0 343 0 343 -23 -50 c-13 -27 -32 -75 -42 -105
-37 -112 -125 -328 -174 -432 -28 -59 -51 -110 -51 -114 0 -3 -6 -20 -14 -37
-8 -18 -26 -63 -41 -102 -56 -149 -68 -182 -95 -245 -15 -36 -45 -108 -66
-160 -20 -52 -41 -99 -46 -104 -4 -6 -8 -17 -8 -25 0 -17 -75 -219 -96 -260
-8 -14 -14 -29 -14 -32 0 -4 -25 -59 -55 -124 -30 -64 -55 -118 -55 -120 0 -6
-88 -193 -151 -320 -27 -55 -49 -104 -49 -107 0 -4 -11 -31 -24 -60 -14 -29
-27 -65 -31 -80 -4 -15 -13 -32 -21 -39 -8 -6 -14 -18 -14 -25 0 -8 -19 -49
-42 -91 -23 -43 -54 -103 -69 -133 -15 -30 -67 -135 -115 -233 l-88 -177 -61
-40 c-34 -22 -65 -40 -69 -40 -4 0 -22 -6 -39 -14 -118 -52 -312 -88 -602
-111 -146 -11 -710 63 -800 106 -11 5 -63 23 -115 39 -52 16 -104 34 -115 39
-11 5 -32 13 -47 20 -18 6 -28 18 -28 31 0 19 5 20 83 16 119 -6 364 -24 497
-36 186 -18 523 -24 548 -11 21 11 21 13 6 36 -9 14 -23 25 -31 25 -7 0 -46
15 -86 34 -40 18 -93 41 -117 49 -25 9 -70 26 -100 38 -30 12 -116 42 -190 67
-74 24 -148 50 -165 58 -16 7 -86 29 -155 49 -152 45 -354 104 -395 115 -123
34 -177 48 -220 59 -27 6 -63 18 -80 25 -16 7 -70 26 -120 41 -49 15 -121 39
-160 52 -159 58 -293 105 -335 118 -91 28 -295 109 -418 165 -23 11 -48 20
-55 20 -7 0 -29 9 -50 20 -20 11 -42 20 -48 20 -6 0 -37 11 -68 24 -31 13 -85
35 -121 48 -159 61 -236 93 -256 105 -11 7 -52 24 -90 37 -63 21 -154 58 -229
91 -16 8 -73 32 -125 53 -52 22 -115 48 -140 59 -25 11 -70 31 -100 43 -30 12
-116 47 -190 77 -74 30 -175 68 -223 84 -78 25 -163 59 -264 105 -17 8 -37 14
-45 14 -8 0 -32 9 -53 20 -22 12 -65 29 -95 40 -148 51 -251 90 -315 117 -38
17 -113 47 -165 66 -295 108 -430 140 -430 101 0 -22 56 -71 103 -91 20 -8 37
-19 37 -24 0 -5 6 -9 13 -9 6 0 64 -30 127 -66 63 -36 171 -95 240 -131 69
-37 169 -96 223 -132 54 -36 106 -70 115 -76 9 -5 19 -12 22 -15 12 -12 88
-60 113 -71 15 -7 27 -16 27 -21 0 -4 6 -8 13 -8 6 0 50 -27 97 -58 78 -53 85
-61 88 -94 2 -20 -1 -51 -6 -70 -7 -28 -13 -34 -40 -36 -28 -3 -96 28 -172 78
-8 6 -22 13 -30 17 -28 13 -314 185 -370 222 -30 21 -82 52 -115 70 -33 19
-62 36 -65 40 -3 3 -16 12 -29 19 -13 8 -38 22 -55 32 -29 16 -79 48 -216 140
-25 17 -72 48 -106 70 -75 49 -239 202 -260 243 -19 35 -13 76 20 151 12 28
26 71 30 96 6 44 79 286 116 385 10 28 33 95 51 150 17 55 40 123 50 150 10
28 32 95 50 150 17 55 40 121 50 147 11 26 19 57 19 70 0 13 8 39 18 59 26 51
50 117 62 173 6 27 23 83 39 125 16 42 34 94 41 116 7 22 36 94 65 160 60 134
105 250 105 266 0 5 8 29 19 52 10 23 22 58 26 77 4 19 14 49 23 65 15 30 59
148 90 240 9 28 18 52 22 55 3 3 29 75 58 160 91 263 150 429 158 441 3 6 15
41 24 78 10 36 32 104 50 151 17 47 48 132 67 190 19 58 39 114 43 125 48 126
131 354 189 520 38 108 105 281 140 360 10 22 30 72 44 110 83 225 130 347
147 381 11 21 20 45 20 54 0 9 6 24 14 35 7 11 19 38 26 60 15 49 105 255 170
390 26 55 107 227 180 383 170 363 236 488 311 583 16 20 29 42 29 48 0 8
-729 11 -2680 11 l-2680 0 0 -4640z m3852 3579 c52 -10 120 -29 263 -71 82
-24 144 -51 175 -78 12 -10 54 -38 93 -62 92 -55 109 -74 103 -116 -8 -53 -91
-231 -112 -239 -8 -3 -35 2 -61 10 -80 26 -160 39 -243 38 -129 -1 -316 -35
-441 -81 -46 -17 -101 -35 -122 -41 -108 -27 -365 -208 -447 -314 -19 -25 -39
-51 -45 -58 -5 -7 -22 -30 -36 -52 -105 -158 -127 -225 -141 -423 -13 -176 1
-302 53 -495 44 -163 140 -347 232 -446 35 -36 131 -111 144 -111 5 0 25 -14
46 -31 35 -29 211 -99 249 -99 9 0 23 -7 31 -15 13 -13 13 -21 0 -72 -8 -32
-21 -69 -27 -83 -7 -14 -21 -50 -31 -80 -10 -30 -28 -77 -40 -105 -12 -27 -35
-90 -50 -140 -15 -49 -32 -96 -37 -102 -6 -7 -21 -45 -33 -85 -55 -170 -96
-274 -112 -286 -24 -18 -84 -11 -223 26 -63 16 -140 35 -170 40 -105 19 -300
132 -300 174 0 7 40 54 88 105 103 107 121 135 102 158 -8 10 -21 13 -39 9
-43 -9 -154 -57 -185 -79 -54 -38 -149 -139 -195 -207 -49 -72 -161 -198 -186
-210 -19 -9 -30 -7 -50 6 -26 17 -26 20 -20 79 4 34 12 71 17 82 13 26 63 69
105 92 18 10 33 21 33 25 0 5 14 17 32 28 45 27 198 170 198 185 0 7 9 24 20
38 19 23 27 57 15 57 -3 0 -32 -19 -63 -42 -56 -42 -119 -78 -134 -78 -4 0 -8
14 -8 30 0 17 -4 30 -9 30 -11 0 -64 -41 -74 -57 -4 -7 -17 -13 -29 -13 -16 0
-19 4 -14 23 4 12 9 54 13 93 5 62 3 74 -13 90 -11 11 -28 36 -37 57 -10 20
-24 37 -32 37 -8 0 -15 9 -15 19 0 11 -3 27 -7 37 -6 16 -3 16 29 -3 53 -31
96 -39 104 -18 9 23 -62 145 -120 206 -9 8 -22 31 -30 51 -9 19 -22 38 -30 41
-8 3 -19 23 -26 44 -7 21 -26 62 -42 91 -17 30 -41 93 -54 140 -39 145 -63
200 -65 151 -1 -18 -3 -15 -9 11 -6 29 -8 24 -9 -32 -1 -86 16 -213 36 -260 9
-20 13 -44 9 -53 -5 -14 -10 -12 -29 12 -73 89 -132 213 -158 333 -6 30 -21
87 -32 125 -23 82 -33 253 -18 335 5 30 30 133 55 228 37 138 60 201 112 307
55 114 74 142 120 184 30 26 85 88 122 137 86 114 111 143 200 232 133 130
360 275 507 321 39 13 89 31 113 42 23 10 51 19 60 19 10 0 22 4 28 9 15 14
82 23 89 11 4 -6 -6 -10 -24 -10 -18 0 -40 -9 -51 -20 -11 -11 -31 -22 -45
-26 -14 -3 -25 -10 -25 -14 0 -5 -10 -12 -22 -15 -35 -11 -125 -72 -132 -90
-14 -36 69 -26 169 20 317 147 357 175 250 175 -30 0 -55 5 -55 10 0 6 8 10
18 10 9 0 37 10 62 21 25 11 63 24 85 29 22 5 83 20 135 34 78 20 121 24 242
25 81 1 171 -4 200 -10z m-430 -1182 c102 -79 143 -134 167 -225 10 -37 9 -53
-16 -135 -26 -87 -31 -96 -91 -154 -55 -53 -72 -64 -119 -73 -130 -27 -276 38
-324 145 -42 92 -14 269 57 366 61 83 118 110 221 105 59 -2 78 -8 105 -29z
m-1464 -1400 c2 -10 -3 -17 -12 -17 -10 0 -16 9 -16 21 0 24 23 21 28 -4z m63
-120 c-8 -8 -11 -3 -11 19 1 25 2 27 11 11 8 -14 8 -22 0 -30z m-45 -99 c44
-46 92 -89 107 -95 15 -7 30 -20 33 -28 4 -8 12 -15 20 -15 10 0 14 -13 14
-43 0 -35 -9 -55 -53 -117 -28 -41 -63 -91 -76 -110 -15 -23 -46 -46 -91 -69
-51 -25 -77 -46 -106 -85 -21 -28 -55 -69 -76 -91 -117 -126 -182 -205 -214
-264 -61 -108 -89 -164 -104 -201 -7 -19 -40 -90 -72 -158 -32 -68 -58 -125
-58 -127 0 -5 -72 -177 -101 -242 -10 -24 -19 -46 -19 -50 0 -7 -12 -33 -65
-143 -48 -101 -68 -125 -129 -154 -66 -31 -62 -20 34 104 32 42 50 75 50 93 0
40 -22 34 -83 -22 -76 -68 -248 -179 -305 -196 -59 -18 -83 -19 -107 -1 -18
13 -18 15 -2 37 10 13 29 42 44 64 14 22 32 46 40 53 7 7 13 16 13 20 0 4 24
32 53 62 139 147 261 284 317 356 14 18 62 77 108 131 103 123 95 112 127 164
16 24 49 71 75 104 57 74 210 301 268 396 24 39 61 119 82 178 22 58 44 113
49 121 4 9 12 31 15 50 4 19 16 64 26 100 10 36 26 99 36 140 21 93 33 120 54
120 10 0 53 -37 96 -82z m784 -2054 c20 -3 44 -12 54 -19 20 -15 19 -17 -74
-310 -21 -66 -44 -142 -51 -169 -17 -58 -52 -90 -89 -82 -59 14 -151 11 -230
-5 -98 -21 -219 -60 -265 -88 -17 -10 -48 -24 -68 -30 -20 -7 -37 -16 -37 -21
0 -4 -14 -13 -30 -19 -93 -32 -262 -222 -300 -335 -12 -38 -46 -86 -61 -86 -4
0 -10 18 -14 39 -4 22 -13 45 -20 51 -8 6 -19 37 -25 67 -7 31 -20 80 -31 110
-10 30 -21 95 -25 144 -8 102 -19 125 -57 115 -46 -11 -62 -76 -62 -251 l0
-150 44 -135 c38 -118 87 -247 166 -437 32 -78 76 -142 112 -164 17 -11 53
-52 80 -92 26 -39 51 -73 56 -75 4 -2 7 -9 8 -15 0 -7 20 -39 44 -72 25 -33
57 -78 72 -100 15 -22 36 -50 47 -61 12 -12 28 -30 36 -40 9 -11 42 -52 75
-93 33 -41 71 -88 85 -104 29 -36 20 -27 341 -338 140 -135 306 -292 369 -349
63 -56 144 -130 180 -164 36 -34 90 -83 121 -109 69 -57 305 -291 326 -324 14
-22 13 -27 -25 -88 -47 -74 -82 -177 -82 -239 0 -87 54 -193 140 -275 l42 -40
-4 -158 c-3 -87 -12 -192 -21 -233 -9 -41 -23 -111 -31 -155 -8 -44 -19 -92
-25 -108 -12 -31 -42 -48 -49 -28 -2 7 -36 43 -75 79 -95 89 -106 101 -147
152 -19 25 -42 51 -50 60 -9 9 -29 34 -45 55 -16 22 -42 55 -57 73 -15 18 -28
42 -28 54 0 19 5 20 48 16 26 -3 63 -12 82 -20 54 -24 63 -26 87 -17 42 15 30
55 -36 118 -60 57 -154 109 -413 230 -226 105 -488 302 -488 365 0 10 26 6 56
-8 16 -8 63 -29 104 -48 68 -30 146 -69 352 -176 56 -29 70 -33 83 -22 22 18
18 39 -18 96 -36 57 -72 90 -167 154 -65 44 -349 189 -490 250 -41 18 -88 38
-105 45 -194 84 -255 115 -322 160 -44 29 -84 54 -90 56 -11 4 -55 39 -144
112 -132 109 -272 278 -321 387 -11 25 -31 70 -44 100 -32 71 -59 176 -84 325
-11 66 -27 157 -35 202 -8 45 -15 100 -15 123 0 38 1 40 21 30 12 -7 45 -64
81 -138 199 -418 281 -557 386 -653 102 -93 192 -143 192 -107 0 13 -70 121
-82 126 -4 2 -22 27 -40 55 -18 29 -40 61 -50 71 -69 76 -287 536 -254 536 8
0 54 -50 96 -106 87 -114 173 -221 194 -239 12 -11 55 -56 96 -100 40 -44 214
-224 386 -400 394 -402 502 -515 584 -606 36 -39 122 -130 192 -201 110 -113
130 -129 155 -126 23 2 29 8 31 33 2 24 -12 52 -66 130 -38 55 -77 107 -86
114 -9 7 -16 18 -16 23 0 10 -72 102 -144 183 -24 28 -65 77 -92 110 -100 124
-203 236 -393 426 -108 108 -203 204 -212 215 -9 10 -76 78 -150 150 -159 157
-242 246 -270 294 -12 19 -34 49 -49 65 -24 26 -123 170 -188 275 -22 36 -87
157 -157 296 -39 77 -93 209 -146 354 -23 61 -24 77 -22 265 1 192 3 206 36
340 43 172 81 255 150 323 49 48 208 152 233 152 6 0 17 7 24 15 7 8 19 15 27
15 8 0 50 15 93 34 165 73 369 128 595 161 88 14 405 13 485 -1z m1812 -1605
c32 -26 39 -37 36 -62 -2 -16 -10 -35 -19 -40 -37 -23 -120 100 -84 125 17 12
25 9 67 -23z m-135 -27 c6 -28 70 -155 94 -190 8 -10 39 -48 69 -83 30 -34
102 -117 160 -183 135 -156 332 -351 455 -449 39 -31 77 -64 86 -74 34 -39
113 -105 147 -122 21 -11 63 -42 94 -69 32 -28 68 -54 80 -58 13 -3 39 -19 59
-35 73 -57 322 -221 382 -251 55 -27 146 -82 229 -139 15 -11 30 -19 34 -19 3
0 20 -6 37 -14 18 -8 88 -31 157 -51 129 -37 170 -56 170 -78 0 -10 -64 -75
-165 -167 -89 -80 -237 -170 -282 -170 -27 0 -112 -50 -118 -70 -4 -13 0 -31
10 -47 16 -24 21 -25 77 -20 33 3 65 10 71 16 6 6 17 11 25 11 38 0 244 124
280 169 54 66 221 226 249 238 40 16 234 24 272 11 14 -5 31 -18 39 -29 14
-20 15 -20 34 -2 31 28 105 143 138 217 35 77 43 80 128 36 33 -16 64 -30 70
-30 6 0 26 -9 44 -19 18 -10 78 -34 133 -52 55 -18 109 -38 120 -45 11 -6 57
-24 101 -38 45 -15 89 -35 98 -45 16 -18 15 -20 -26 -39 -24 -11 -61 -25 -83
-32 -22 -7 -67 -25 -100 -40 -33 -16 -94 -40 -135 -55 -41 -15 -104 -38 -140
-52 -36 -13 -77 -28 -91 -32 -14 -5 -39 -15 -55 -24 -17 -8 -57 -24 -89 -35
-33 -12 -100 -39 -150 -62 -101 -47 -118 -55 -225 -100 -41 -17 -94 -42 -116
-55 -23 -13 -68 -34 -100 -46 -33 -12 -65 -26 -71 -31 -7 -6 -45 -26 -85 -45
-109 -53 -318 -197 -458 -317 -89 -75 -245 -204 -300 -245 -25 -19 -66 -53
-92 -75 -25 -23 -66 -58 -90 -78 -105 -91 -267 -271 -378 -423 -93 -126 -179
-254 -201 -300 -11 -22 -24 -47 -29 -55 -9 -16 -29 -54 -53 -105 -8 -16 -21
-36 -30 -43 -20 -17 -29 -1 -51 93 -9 39 -30 108 -47 155 -17 47 -43 121 -59
165 -86 243 -108 302 -118 320 -6 11 -31 65 -57 120 -25 55 -59 126 -75 157
-17 31 -30 61 -30 67 0 6 -7 19 -16 29 -9 9 -36 53 -61 97 -25 44 -64 111 -87
148 -23 37 -46 76 -51 85 -23 37 -125 185 -182 261 -10 13 -27 36 -38 51 -11
15 -40 51 -65 79 -25 29 -65 76 -88 104 -24 29 -65 77 -92 107 -26 30 -58 68
-71 83 -41 49 -381 389 -459 459 -72 63 -74 67 -58 85 14 15 43 22 150 32 73
7 162 21 198 31 36 10 114 31 175 45 60 14 124 33 141 41 78 37 176 166 219
289 10 28 26 68 36 90 9 22 31 83 48 135 17 52 49 150 71 218 22 68 43 144 47
170 3 26 12 59 19 74 8 15 14 37 14 50 0 13 9 59 20 103 11 44 20 101 20 127
0 58 15 93 41 95 13 1 21 -7 26 -25z m289 -92 c-2 -47 -16 -67 -16 -22 0 16
-3 37 -6 46 -4 10 -1 16 9 16 11 0 15 -10 13 -40z m160 -25 c18 -12 20 -20 16
-76 -3 -35 -11 -69 -18 -77 -17 -16 -16 -17 -39 83 -9 39 -18 76 -21 83 -5 15
28 8 62 -13z m167 -64 c27 -28 28 -33 33 -157 2 -71 7 -167 10 -213 4 -66 3
-82 -8 -79 -7 3 -16 27 -19 54 -13 96 -61 280 -87 327 -21 40 -23 51 -14 72
15 34 50 32 85 -4z m178 -77 c22 -24 25 -36 30 -157 6 -129 13 -172 43 -279
20 -71 24 -150 9 -155 -6 -2 -24 13 -38 35 -27 40 -58 185 -74 342 -5 41 -16
106 -26 143 -13 54 -14 71 -5 82 18 21 33 19 61 -11z m186 -68 c27 -24 28 -26
26 -120 -2 -53 4 -127 11 -164 8 -37 15 -94 15 -127 0 -33 6 -82 12 -110 23
-107 23 -118 3 -107 -19 11 -44 80 -44 125 0 16 -4 36 -10 46 -5 10 -15 52
-21 92 -6 41 -15 76 -20 79 -4 3 -13 35 -18 70 -6 36 -20 91 -31 122 -23 66
-26 104 -7 111 28 12 57 6 84 -17z m205 -86 l33 -28 2 -173 c2 -96 7 -205 13
-244 6 -38 15 -97 20 -130 5 -33 12 -70 15 -82 11 -35 -2 -73 -24 -73 -31 0
-58 44 -65 107 -12 101 -37 266 -51 338 -7 39 -16 97 -20 130 -4 33 -10 67
-15 75 -4 8 -10 36 -12 62 -4 38 -2 48 11 50 29 7 59 -4 93 -32z m182 -80 c16
-15 18 -32 17 -117 -1 -55 3 -122 10 -149 6 -27 12 -123 14 -215 1 -99 7 -173
14 -186 6 -12 11 -36 11 -53 l0 -32 -25 23 c-15 15 -25 35 -25 54 0 30 -36
256 -46 286 -2 9 -9 61 -15 115 -15 151 -24 199 -42 227 -22 33 -22 53 1 66
22 14 62 5 86 -19z m-4444 -46 c0 -8 -5 -12 -10 -9 -6 4 -8 11 -5 16 9 14 15
11 15 -7z m4639 -35 c21 -28 23 -43 27 -190 2 -87 8 -179 14 -203 13 -58 33
-372 26 -402 -6 -23 -7 -23 -36 -6 -18 10 -33 28 -35 42 -3 14 -12 54 -20 90
-8 36 -15 108 -16 160 -1 52 -8 131 -15 175 -8 44 -17 121 -20 170 -3 50 -10
106 -15 124 -17 68 48 97 90 40z m212 -79 l42 -39 -7 -79 c-5 -54 -2 -108 9
-173 32 -193 36 -224 45 -343 6 -66 13 -150 16 -185 l7 -64 -26 7 c-48 12 -72
24 -94 47 -20 22 -23 41 -33 199 -5 96 -15 193 -20 215 -5 22 -10 83 -10 135
0 52 -7 135 -16 184 -8 49 -13 100 -9 113 9 36 47 30 96 -17z m3769 -42 c0
-40 -32 -128 -63 -172 -35 -51 -99 -126 -109 -126 -16 0 -8 45 17 95 13 27 38
82 55 120 41 93 57 115 80 115 16 0 20 -7 20 -32z m-3576 -13 c27 -8 55 -23
62 -32 10 -14 13 -74 13 -268 0 -200 3 -265 16 -324 18 -75 18 -252 2 -279
-29 -46 -70 81 -82 253 -4 44 -13 118 -21 164 -7 46 -14 98 -14 115 0 18 -7
59 -16 91 -8 33 -20 92 -25 130 -6 39 -13 85 -16 102 -6 39 1 63 19 63 7 0 35
-7 62 -15z m239 -107 c20 -21 22 -32 20 -138 -2 -70 3 -145 12 -193 8 -44 15
-114 15 -156 0 -42 7 -107 15 -146 8 -38 15 -102 15 -140 0 -59 -3 -72 -20
-82 -23 -15 -64 -3 -74 22 -3 9 -6 51 -6 93 0 42 -5 95 -10 117 -6 22 -15 101
-20 175 -5 74 -16 167 -25 205 -18 86 -30 224 -21 258 5 23 9 24 42 17 20 -5
46 -19 57 -32z m141 -41 c15 -11 20 -30 22 -87 5 -92 33 -302 44 -315 4 -5 10
-48 14 -95 3 -47 10 -118 15 -159 10 -79 2 -121 -23 -121 -7 0 -18 6 -23 13
-10 12 -25 119 -29 212 -1 28 -12 109 -24 179 -11 71 -19 135 -16 143 3 7 1
25 -5 41 -6 15 -16 58 -24 97 -17 94 1 127 49 92z m208 -68 c35 -18 37 -22 31
-52 -16 -77 0 -401 23 -460 8 -23 -21 -67 -45 -67 -22 0 -27 17 -36 130 -8 91
-29 220 -51 315 -23 100 -32 154 -25 160 8 9 62 -5 103 -26z m158 -73 c3 -85
9 -182 14 -226 8 -67 -4 -94 -30 -68 -12 12 -18 38 -20 90 -2 40 -7 98 -12
128 -10 55 -7 80 11 92 13 8 37 -1 37 -16z m140 -30 c5 -15 5 -59 0 -113 -5
-48 -10 -94 -10 -100 0 -7 -4 -13 -8 -13 -11 0 -32 90 -32 134 0 18 -5 48 -11
66 -9 26 -9 34 2 41 25 16 49 9 59 -15z m2654 -442 c0 -34 -4 -70 -9 -80 -4
-10 -9 -26 -11 -34 -18 -90 -29 -130 -60 -220 -40 -115 -78 -207 -128 -315
-18 -38 -44 -94 -56 -122 -13 -29 -27 -53 -31 -53 -4 0 -12 -12 -17 -27 -23
-64 -128 -185 -217 -251 -27 -20 -59 -45 -70 -55 -11 -10 -33 -25 -48 -33 -15
-8 -36 -22 -46 -30 -16 -14 -101 -47 -241 -94 -30 -10 -77 -28 -105 -40 -27
-13 -66 -26 -85 -30 -75 -17 -177 -43 -219 -56 -25 -8 -66 -14 -91 -14 -26 0
-69 -7 -96 -15 -27 -8 -63 -15 -81 -15 -17 0 -53 -4 -80 -10 -26 -5 -76 -15
-110 -21 -35 -6 -70 -17 -79 -23 -14 -11 -14 -14 3 -34 28 -34 129 -44 356
-33 105 5 204 14 218 19 14 6 70 16 125 22 170 21 488 134 607 217 26 18 71
49 100 70 92 64 112 81 181 152 27 28 55 51 62 51 17 0 123 -110 144 -150 23
-44 53 -76 113 -120 27 -19 87 -68 134 -109 100 -88 100 -89 26 -203 -59 -90
-87 -148 -108 -224 -29 -103 -85 -315 -120 -449 -19 -71 -51 -179 -71 -240
-55 -162 -50 -238 19 -289 42 -31 201 -30 271 2 86 39 86 38 116 -148 11 -74
25 -160 31 -190 6 -30 16 -140 23 -243 12 -179 14 -190 38 -213 20 -20 38 -26
99 -31 41 -3 81 -10 90 -14 14 -7 18 -34 23 -176 11 -336 38 -699 54 -729 5
-10 13 -69 17 -130 8 -126 15 -109 -83 -193 -59 -50 -70 -69 -118 -198 -31
-85 -134 -308 -221 -478 -200 -392 -326 -643 -352 -705 -18 -41 -41 -91 -52
-111 -10 -21 -31 -68 -45 -105 -14 -38 -34 -88 -44 -111 -11 -24 -20 -49 -20
-56 0 -7 -4 -17 -9 -23 -5 -5 -20 -45 -35 -89 -39 -120 -66 -151 -86 -99 -13
33 -14 411 -1 449 19 56 66 749 61 880 -8 171 -4 393 7 455 7 36 15 126 19
200 3 74 13 158 20 185 45 164 111 536 125 705 20 248 22 256 87 373 109 196
181 495 139 577 -16 31 -42 37 -64 15 -17 -17 -72 -138 -95 -205 -6 -19 -24
-57 -40 -85 -16 -27 -34 -61 -41 -75 -21 -45 -52 -54 -62 -17 -20 76 -34 112
-76 193 -25 49 -72 125 -105 168 -52 69 -61 77 -89 74 -44 -4 -42 -26 9 -157
25 -62 50 -139 55 -170 13 -82 14 -221 2 -221 -6 0 -36 25 -67 55 -79 77 -97
57 -48 -52 69 -153 108 -244 131 -313 25 -73 26 -79 20 -270 -4 -142 -12 -221
-27 -290 -30 -139 -39 -189 -44 -243 -10 -100 -33 -113 -82 -46 -47 66 -218
251 -281 305 -32 27 -66 56 -76 65 -9 9 -30 22 -45 30 -15 7 -45 25 -67 40
-90 59 -220 122 -327 159 -151 52 -211 74 -223 82 -43 26 -274 88 -365 98
-145 15 -187 25 -460 109 -115 36 -222 62 -397 96 -73 14 -145 32 -160 39 -15
8 -59 17 -98 20 -38 4 -86 15 -105 24 -41 20 -40 7 -20 251 10 126 10 197 2
315 -6 83 -14 224 -17 314 -4 89 -12 204 -19 255 -25 179 8 858 43 900 6 8 28
17 49 21 89 14 162 133 162 264 0 66 -12 101 -65 192 -25 43 -19 63 28 87 86
44 440 198 477 208 14 4 39 13 55 21 62 27 213 86 295 114 47 16 121 43 165
60 91 36 228 87 265 100 14 5 63 24 110 44 46 20 88 36 93 36 20 0 172 83 258
142 97 66 97 66 289 103 47 9 92 18 100 20 8 1 70 19 137 39 115 34 209 81
242 119 18 23 88 46 146 49 48 3 50 2 47 -22 -1 -14 -7 -26 -12 -28 -6 -2 -10
-10 -10 -17 0 -7 -4 -15 -8 -17 -5 -1 -23 -25 -42 -53 -19 -27 -51 -68 -71
-90 -20 -22 -58 -66 -83 -97 -26 -31 -55 -63 -65 -70 -10 -7 -34 -32 -54 -56
-115 -137 -430 -384 -673 -527 -83 -49 -376 -195 -391 -195 -8 0 -31 -9 -51
-20 -73 -38 -178 -82 -348 -144 -18 -6 -38 -16 -45 -22 -31 -24 -195 -81 -398
-139 -69 -20 -152 -50 -185 -67 -34 -17 -73 -38 -88 -45 -36 -19 -39 -62 -5
-64 52 -3 127 4 192 18 39 8 102 21 140 29 291 59 502 126 720 229 39 18 111
49 160 69 119 49 258 118 376 189 53 31 99 57 101 57 7 0 168 108 213 144 22
17 45 34 50 38 17 12 209 171 221 182 155 146 289 289 384 411 30 39 60 76 67
83 7 7 13 17 13 21 0 4 11 21 25 37 36 42 125 172 125 183 0 17 32 42 49 39
13 -3 16 -16 15 -64z m-2863 -171 c30 -77 18 -120 -29 -102 -34 13 -45 52 -25
94 20 42 40 45 54 8z m-3380 -614 c26 -13 42 -55 30 -78 -5 -9 -21 -23 -36
-31 -36 -19 -55 -59 -55 -113 0 -86 -59 -65 -68 23 -7 77 5 132 39 173 31 38
55 45 90 26z m83 -254 c9 -13 20 -54 25 -90 11 -73 4 -265 -11 -335 -5 -25
-13 -146 -18 -270 -5 -124 -14 -243 -20 -265 -6 -22 -15 -175 -20 -340 -5
-165 -14 -394 -20 -510 -6 -115 -13 -527 -14 -915 -3 -675 -6 -774 -37 -1075
-6 -55 -16 -154 -23 -220 -7 -66 -18 -130 -24 -142 -7 -12 -12 -31 -12 -43 0
-50 -31 -89 -113 -142 -91 -59 -129 -76 -169 -77 -23 -1 -28 4 -34 34 -7 42 2
216 15 276 5 24 12 109 16 189 3 80 11 167 16 195 5 27 14 140 20 250 5 110
16 227 24 260 10 39 15 114 15 215 0 85 7 200 15 255 8 59 15 179 15 290 0
105 6 249 14 320 8 72 17 186 21 254 4 80 15 158 31 220 22 88 40 176 65 322
5 31 16 76 24 99 8 23 15 53 15 66 0 13 9 47 20 76 11 29 20 66 20 81 0 16 13
94 29 175 16 81 35 199 41 262 31 311 31 337 -1 504 -13 67 -13 69 10 87 31
25 45 24 65 -6z m224 -153 c12 -14 22 -28 22 -32 0 -4 14 -23 30 -41 17 -19
39 -50 50 -70 10 -20 35 -57 54 -82 19 -25 42 -58 51 -74 9 -15 26 -46 39 -68
73 -123 212 -396 231 -456 10 -30 26 -72 36 -94 10 -22 23 -60 29 -84 6 -24
23 -69 36 -99 13 -30 31 -80 39 -111 28 -112 65 -248 89 -331 73 -249 85 -396
46 -535 -10 -38 -22 -87 -25 -108 -7 -46 -34 -60 -91 -46 -47 11 -235 27 -399
33 -66 3 -158 10 -205 16 -47 6 -105 8 -131 5 -67 -9 -73 2 -65 128 3 56 8
246 11 422 7 377 7 383 40 391 29 7 121 -42 205 -111 150 -121 201 -156 223
-153 72 10 -35 184 -177 288 -26 19 -62 47 -79 61 -18 15 -60 40 -94 58 -78
39 -97 66 -89 123 3 24 6 90 7 148 1 58 7 141 14 185 7 44 16 163 19 265 4
102 9 236 13 298 6 109 6 112 27 106 11 -3 31 -18 44 -32z m2672 -79 c55 -32
60 -83 13 -132 -62 -66 -78 -146 -98 -484 -16 -285 -9 -635 21 -947 18 -199
18 -578 -1 -735 -7 -66 -17 -212 -20 -325 -3 -113 -10 -234 -16 -270 -5 -36
-11 -83 -14 -105 -2 -22 -10 -80 -18 -130 -8 -49 -22 -142 -32 -205 -9 -63
-25 -149 -36 -191 -10 -42 -19 -91 -19 -110 0 -18 -7 -58 -15 -88 -12 -48 -35
-157 -65 -316 -36 -191 -115 -562 -141 -660 -10 -38 -27 -141 -48 -290 -15
-106 -33 -380 -30 -468 4 -98 -10 -112 -59 -64 -39 37 -81 106 -140 234 l-44
92 11 173 c20 313 73 622 182 1053 17 66 39 154 50 195 10 41 23 116 29 165 5
50 14 113 19 140 6 28 10 80 10 117 1 37 10 104 21 150 14 59 20 118 20 203 0
66 5 136 11 155 6 19 15 114 20 210 4 96 13 227 18 290 5 63 10 273 11 465 0
193 5 383 10 423 5 40 14 143 20 230 5 86 17 209 25 272 24 191 35 281 45 375
12 110 47 286 67 340 8 22 29 80 46 129 25 71 38 93 62 108 37 22 49 22 85 1z
m-345 -157 c23 -17 23 -55 2 -158 -21 -96 -36 -205 -43 -303 -3 -44 -11 -109
-19 -145 -8 -36 -16 -108 -19 -160 -3 -52 -13 -135 -21 -185 -8 -49 -19 -227
-26 -395 -17 -452 -23 -574 -32 -587 -11 -18 -48 -16 -121 4 -51 14 -111 17
-366 18 -212 0 -320 -4 -355 -12 -27 -7 -88 -17 -135 -23 -47 -5 -101 -12
-120 -15 -59 -10 -64 0 -51 101 27 203 31 235 42 359 11 130 32 202 97 335 26
52 95 165 104 168 4 2 8 8 8 14 0 6 24 42 53 82 29 39 66 91 82 115 56 83 268
311 365 392 138 114 166 137 205 162 37 23 89 67 140 115 11 11 42 35 68 53
26 19 62 44 79 57 36 26 38 26 63 8z m-1482 -2134 c-1 -31 -9 -84 -17 -117 -9
-32 -16 -89 -16 -125 0 -75 -17 -179 -32 -197 -5 -7 -10 -56 -9 -110 1 -95
-17 -195 -38 -216 -15 -15 -24 35 -18 101 3 31 10 118 16 192 7 74 16 154 21
178 6 23 10 73 10 110 0 69 20 195 40 247 10 27 12 28 28 11 13 -12 17 -32 15
-74z m-2433 -392 c0 -5 -4 -10 -10 -10 -5 0 -10 5 -10 10 0 6 5 10 10 10 6 0
10 -4 10 -10z m-179 -45 c31 -10 17 -16 -46 -20 -65 -4 -73 -8 -55 -30 7 -8
14 -32 16 -52 2 -19 10 -43 19 -53 20 -22 19 -30 -5 -30 -17 0 -20 -7 -20 -40
0 -22 -4 -40 -10 -40 -5 0 -10 -18 -10 -40 0 -22 -4 -40 -10 -40 -5 0 -10 -18
-10 -40 0 -29 4 -40 15 -40 8 0 15 -4 15 -10 0 -5 -8 -10 -19 -10 -10 0 -25
-8 -32 -17 -12 -15 -12 -16 6 -10 19 7 19 6 3 -7 -12 -8 -18 -28 -19 -52 0
-21 -3 -33 -6 -26 -4 10 -9 9 -24 -4 -10 -9 -16 -21 -13 -26 4 -6 10 -5 15 3
6 9 9 -3 9 -33 0 -27 -5 -48 -10 -48 -6 0 -15 -12 -20 -26 -11 -28 -30 -24
-30 7 0 12 -7 19 -20 19 -17 0 -20 7 -20 40 0 33 -3 40 -20 40 -14 0 -20 7
-20 23 l0 22 -20 -25 c-13 -16 -20 -41 -20 -71 0 -31 -7 -55 -20 -72 -31 -39
-26 -52 20 -52 22 0 40 3 40 7 0 5 7 8 15 8 11 0 15 -11 15 -41 0 -36 -6 -47
-42 -80 -29 -26 -45 -35 -50 -26 -14 22 -17 1 -6 -42 9 -34 8 -45 -3 -51 -11
-7 -11 -12 2 -27 20 -24 42 -76 29 -68 -5 3 -10 0 -10 -8 0 -8 -7 -20 -15 -27
-13 -11 -15 -8 -15 19 0 49 -17 36 -22 -16 -5 -52 -37 -130 -47 -115 -3 6 -7
-15 -7 -47 -1 -37 1 -49 7 -36 5 14 8 7 8 -27 1 -27 -2 -47 -6 -47 -5 1 -27 1
-50 0 l-43 -1 0 -79 0 -80 38 -3 37 -3 3 -73 c2 -59 0 -73 -13 -78 -9 -4 -23
-24 -32 -45 -17 -43 -53 -56 -53 -19 0 11 -4 20 -10 20 -5 0 -10 9 -10 20 0
13 7 20 20 20 17 0 20 7 20 40 l0 40 -40 0 -40 0 0 -40 c0 -29 -4 -40 -15 -40
-11 0 -15 -11 -15 -40 0 -39 1 -40 35 -40 28 0 35 -4 35 -20 0 -11 5 -20 10
-20 6 0 10 5 10 10 0 6 5 10 10 10 6 0 10 -11 10 -25 0 -22 -4 -25 -39 -25
l-38 0 -2 -77 c-1 -49 -6 -82 -14 -88 -20 -15 -47 -91 -47 -130 0 -19 -4 -35
-10 -35 -5 0 -10 10 -10 23 -1 22 -1 22 -16 2 -9 -12 -11 -21 -4 -23 6 -2 10
-37 10 -83 l0 -79 -45 0 c-36 0 -45 -3 -45 -17 -1 -22 -29 -58 -53 -67 -11 -3
-21 -15 -24 -26 -3 -11 -10 -20 -17 -20 -6 0 -4 -5 4 -11 13 -9 13 -11 1 -16
-10 -4 -8 -9 10 -19 23 -13 23 -13 -16 -14 -40 0 -85 -22 -85 -41 0 -6 4 -7
10 -4 5 3 8 0 5 -7 -6 -17 15 -48 21 -32 4 9 11 9 29 0 14 -6 25 -14 25 -18 0
-5 12 -8 26 -8 14 0 23 -4 19 -10 -3 -5 -19 -10 -36 -10 -31 0 -39 -14 -13
-24 9 -4 14 -9 10 -13 -3 -3 1 -15 11 -25 15 -17 14 -18 -35 -18 l-52 0 0 40
c0 35 -3 40 -24 40 -22 0 -24 -5 -31 -75 l-7 -76 -78 2 c-43 1 -91 7 -107 14
-15 6 -73 21 -128 33 -138 28 -245 69 -245 93 0 17 -25 25 -62 20 -3 0 -22 14
-42 33 -36 32 -48 66 -23 66 9 0 13 85 15 383 2 403 8 529 23 506 8 -13 12
133 15 486 1 166 16 393 24 370 6 -17 8 -16 13 10 7 35 12 266 7 373 -1 45 2
78 9 85 6 6 11 32 11 58 0 56 14 74 67 84 21 3 76 17 122 31 l85 24 23 -22
c13 -12 24 -16 24 -10 1 7 2 17 3 24 2 19 95 38 159 32 37 -3 57 -2 53 5 -8
12 117 41 178 41 25 0 47 4 50 9 4 5 24 12 46 16 22 4 43 11 46 16 3 6 31 9
62 7 32 -1 71 3 87 9 17 6 77 14 135 18 58 3 134 9 170 13 66 7 263 -1 301
-13z m3129 -86 c74 -5 194 -13 267 -18 72 -5 136 -12 141 -15 5 -3 43 -13 83
-21 41 -8 118 -27 171 -42 83 -23 98 -30 103 -50 3 -13 3 -29 -1 -34 -4 -6
-10 -60 -14 -120 -5 -60 -15 -141 -23 -181 -24 -117 -46 -265 -57 -381 -5 -59
-14 -116 -19 -126 -6 -10 -15 -43 -20 -72 -5 -30 -24 -112 -40 -184 -44 -183
-81 -371 -81 -407 0 -17 -7 -56 -15 -87 -8 -31 -19 -96 -24 -146 -8 -64 -16
-94 -30 -108 -18 -18 -21 -18 -76 -2 -142 41 -432 35 -665 -15 -158 -33 -217
-37 -246 -16 -17 13 -20 32 -25 203 -5 137 -3 215 7 288 7 55 14 181 14 280 1
121 6 201 16 245 8 36 19 163 24 285 5 121 14 247 19 280 5 33 13 123 16 200
9 191 27 228 120 248 37 8 219 6 355 -4z m-973 -72 c5 -3 46 -7 92 -8 59 -1
88 -6 102 -18 20 -16 20 -19 5 -100 -9 -46 -16 -117 -16 -158 0 -42 -7 -119
-15 -172 -8 -53 -19 -186 -25 -296 -6 -110 -15 -238 -20 -285 -5 -47 -9 -300
-9 -562 l-1 -478 -25 -16 c-20 -13 -32 -14 -72 -4 -111 26 -132 29 -213 30
-47 0 -107 7 -134 15 -27 8 -81 15 -120 16 -39 0 -96 4 -126 9 -30 5 -109 14
-175 20 -66 6 -170 18 -231 26 -66 8 -196 14 -325 14 -145 0 -238 5 -289 14
-41 8 -122 20 -180 25 -126 12 -275 42 -350 69 -157 58 -223 214 -180 432 10
52 21 106 23 120 7 36 116 350 135 385 25 50 70 110 122 165 148 156 187 192
262 248 48 34 91 62 96 62 5 0 17 9 27 20 10 11 22 20 27 20 5 0 24 11 41 24
18 13 70 42 117 64 47 22 107 60 132 84 46 43 125 88 153 88 18 0 33 -28 30
-55 -19 -139 -25 -206 -30 -355 -4 -96 -13 -197 -20 -225 -8 -27 -17 -117 -20
-200 -3 -82 -12 -179 -20 -215 -8 -36 -16 -91 -20 -123 -3 -32 -12 -71 -19
-86 -17 -32 -56 -192 -56 -228 0 -63 62 -142 129 -161 68 -21 171 -30 220 -19
59 12 141 68 178 120 34 48 103 175 103 190 0 5 8 28 19 51 40 88 60 155 77
257 l18 106 -22 38 c-22 36 -22 40 -12 208 6 94 17 205 24 246 9 47 17 173 20
325 4 207 8 251 21 266 14 15 40 17 279 15 145 -1 268 -5 273 -8z m-2137 -36
c0 -6 -4 -13 -10 -16 -5 -3 -10 1 -10 9 0 9 5 16 10 16 6 0 10 -4 10 -9z m-60
-35 c0 -13 6 -27 13 -29 6 -3 -3 -6 -20 -6 -30 -1 -33 2 -33 29 0 23 4 30 20
30 14 0 20 -7 20 -24z m2538 -293 c2 -69 -1 -162 -8 -206 -6 -43 -11 -129 -11
-191 0 -116 -11 -242 -31 -336 -11 -53 -11 -54 -19 -25 -13 45 -11 322 3 390
6 33 13 120 14 194 2 124 29 319 42 306 3 -3 7 -62 10 -132z m1967 -19 c11 -8
36 -19 57 -25 21 -5 38 -14 38 -20 0 -5 26 -26 58 -46 73 -46 220 -170 267
-225 52 -61 82 -117 111 -205 24 -71 26 -92 25 -243 0 -163 -5 -221 -36 -413
-30 -194 -117 -317 -263 -376 -75 -30 -81 -31 -239 -31 -163 0 -232 8 -311 37
-62 23 -63 32 -19 203 8 30 25 100 37 155 12 55 35 156 50 225 39 167 52 234
104 540 8 47 20 114 26 150 7 36 17 108 24 161 10 86 26 130 45 129 3 0 15 -7
26 -16z m-4538 -116 c-3 -8 -6 -5 -6 6 -1 11 2 17 5 13 3 -3 4 -12 1 -19z
m-117 -94 c0 -12 -35 -74 -42 -74 -4 0 -8 20 -8 44 0 41 1 43 25 38 14 -2 25
-6 25 -8z m-70 -19 c0 -8 -4 -15 -10 -15 -5 0 -7 7 -4 15 4 8 8 15 10 15 2 0
4 -7 4 -15z m-16 -150 c-4 -8 -7 -15 -9 -15 -2 0 -5 7 -9 15 -3 9 0 15 9 15 9
0 12 -6 9 -15z m95 -82 c-1 -10 -5 -29 -9 -43 -7 -21 -8 -19 -9 18 -1 23 4 42
9 42 6 0 10 -8 9 -17z m-199 -155 c0 -7 -5 -20 -10 -28 -8 -12 -10 -9 -10 13
0 15 5 27 10 27 6 0 10 -6 10 -12z m-558 -1680 c-15 -15 -26 -4 -18 18 5 13 9
15 18 6 9 -9 9 -15 0 -24z m8039 -154 c3 -18 7 -92 8 -165 1 -74 6 -232 12
-352 12 -249 10 -260 -58 -273 -38 -7 -65 -33 -114 -108 -15 -23 -35 -50 -45
-61 -42 -44 -131 -205 -196 -355 -15 -34 -15 -34 -27 -12 -15 28 -20 49 -31
132 -13 92 -39 210 -55 240 -34 66 -69 77 -375 116 -69 8 -170 24 -225 35
-132 25 -167 24 -219 -6 l-43 -25 -44 25 c-117 66 -292 119 -434 131 -38 3
-100 12 -137 20 -36 7 -144 16 -240 19 -95 3 -254 12 -353 20 -99 7 -227 17
-285 20 -75 4 -109 10 -122 22 -10 9 -16 19 -14 22 3 4 7 81 11 171 5 130 10
168 22 182 15 16 42 18 310 18 219 0 312 -4 366 -15 122 -25 356 -37 752 -41
415 -3 735 9 860 33 44 9 115 21 157 28 70 12 233 72 267 99 38 30 208 115
226 113 13 -1 21 -12 26 -33z"/>
<path d="M3310 16496 c-75 -17 -230 -65 -260 -81 -14 -7 -41 -19 -60 -26 -19
-7 -52 -23 -73 -36 -31 -20 -38 -29 -35 -51 4 -37 42 -40 110 -9 29 14 66 28
82 31 28 7 29 6 23 -27 -6 -39 6 -57 38 -57 24 0 130 54 160 82 10 10 41 33
67 51 26 17 48 35 48 38 0 11 -42 18 -72 12 -25 -5 -29 -3 -26 13 2 12 18 22
48 29 29 7 46 17 48 28 4 20 -17 21 -98 3z m-7 -93 c-7 -2 -19 -2 -25 0 -7 3
-2 5 12 5 14 0 19 -2 13 -5z"/>
<path d="M3294 16255 c13 -10 24 -11 37 -4 28 14 23 19 -18 19 -35 -1 -37 -2
-19 -15z"/>
<path d="M3285 16103 c-38 -19 -46 -27 -34 -33 21 -12 59 -1 59 17 0 9 6 13
13 10 19 -7 41 8 33 22 -9 14 -12 14 -71 -16z"/>
<path d="M2450 16070 c0 -5 -4 -10 -9 -10 -18 0 -95 -58 -121 -89 -14 -17 -40
-49 -58 -70 -18 -22 -45 -55 -60 -74 -15 -20 -43 -56 -62 -81 -35 -45 -60 -59
-60 -32 0 8 4 17 9 20 5 3 12 26 15 50 4 24 14 50 21 56 16 13 21 50 7 50 -11
0 -52 -44 -52 -54 0 -5 -16 -31 -36 -58 -19 -28 -38 -57 -42 -66 -4 -10 -29
-55 -56 -101 -70 -117 -145 -296 -171 -410 -14 -57 -14 -66 0 -87 18 -29 17
-28 42 -6 11 9 25 40 32 68 14 59 42 94 75 94 12 0 35 13 50 29 30 32 34 38
81 128 16 32 35 64 42 71 6 6 15 21 18 32 8 25 25 26 25 1 0 -22 -47 -119 -67
-140 -8 -8 -13 -29 -11 -50 3 -34 5 -36 38 -36 35 0 36 1 100 125 137 262 151
284 266 417 105 122 131 163 104 163 -5 0 -10 -4 -10 -10 0 -5 -6 -10 -14 -10
-8 0 -17 -9 -21 -19 -3 -10 -17 -22 -30 -25 -14 -4 -39 -19 -57 -34 -76 -63
-142 -97 -107 -56 16 19 33 48 52 89 8 17 31 50 51 73 37 45 44 62 26 62 -5 0
-10 -4 -10 -10z"/>
<path d="M2585 15818 c-25 -15 -33 -25 -100 -125 -57 -85 -66 -121 -39 -143
13 -11 19 -10 39 11 29 29 115 193 115 219 0 11 5 22 10 25 12 7 13 25 3 25
-5 0 -17 -6 -28 -12z"/>
<path d="M2943 15763 c-7 -3 -13 -11 -13 -20 0 -17 41 -14 47 3 4 13 -16 23
-34 17z"/>
<path d="M2652 15720 c-34 -32 -29 -73 8 -63 32 8 51 83 21 83 -4 0 -17 -9
-29 -20z"/>
<path d="M2120 14756 c0 -8 -4 -26 -10 -41 -9 -23 -12 -24 -32 -14 -18 10 -24
8 -35 -7 -17 -24 -17 -99 2 -160 8 -27 15 -58 15 -69 0 -11 8 -36 18 -55 11
-19 22 -48 26 -64 4 -16 16 -41 27 -54 10 -14 19 -31 19 -38 0 -8 5 -14 10
-14 6 0 10 -6 10 -14 0 -16 49 -118 60 -126 4 -3 13 -16 20 -29 23 -44 103
-141 111 -135 11 7 11 37 0 50 -12 13 -61 167 -61 193 0 11 3 21 8 21 11 -1
62 -85 62 -104 0 -9 4 -16 8 -16 5 0 14 -11 20 -25 21 -46 92 -42 92 6 0 15
-23 72 -60 149 -5 11 -2 16 11 17 10 1 21 -2 24 -8 4 -5 22 -9 40 -9 25 0 39
6 50 24 15 22 14 30 -4 102 -10 44 -22 100 -26 126 -3 28 -13 51 -22 57 -17 9
-51 4 -70 -11 -9 -7 -15 -3 -22 13 -5 13 -21 57 -37 97 -20 52 -32 72 -43 70
-34 -7 -16 -238 22 -300 9 -13 8 -21 -1 -30 -9 -9 -12 -8 -12 5 0 9 -8 24 -18
34 -10 10 -49 88 -87 173 -38 85 -75 165 -83 178 -16 25 -32 29 -32 8z m270
-451 c0 -5 -5 -3 -10 5 -5 8 -10 20 -10 25 0 6 5 3 10 -5 5 -8 10 -19 10 -25z"/>
<path d="M2260 11486 c-14 -8 -52 -21 -85 -29 -236 -60 -602 -366 -617 -516
-3 -22 1 -26 28 -29 25 -2 37 4 63 33 17 20 31 42 31 49 0 16 176 194 205 207
11 5 40 25 65 44 37 28 111 76 210 135 34 20 108 50 137 56 32 6 51 33 38 54
-9 14 -45 12 -75 -4z"/>
<path d="M4337 9508 c-4 -12 -2 -40 3 -63 4 -22 11 -78 15 -125 7 -84 98 -430
130 -494 8 -16 15 -34 15 -40 0 -6 6 -23 14 -37 7 -14 19 -48 25 -75 26 -105
100 -168 130 -110 16 29 11 96 -11 146 -9 19 -30 78 -48 130 -17 52 -36 104
-41 115 -13 29 -76 253 -85 300 -8 45 -81 244 -96 263 -16 19 -45 14 -51 -10z"/>
<path d="M3448 8687 c-20 -16 -23 -50 -7 -95 10 -29 95 -103 149 -130 24 -12
70 -43 120 -81 39 -29 120 -87 167 -118 23 -15 42 -33 43 -39 0 -6 17 -20 38
-32 21 -11 54 -36 74 -54 21 -18 56 -49 79 -68 22 -19 64 -57 93 -85 28 -27
61 -57 71 -67 11 -9 36 -34 55 -57 19 -22 54 -61 78 -86 23 -26 51 -64 62 -85
11 -22 28 -47 38 -57 23 -22 105 -174 121 -225 25 -77 90 -51 98 39 3 26 -2
78 -11 115 -23 100 -139 311 -212 386 -19 19 -34 38 -34 42 0 12 -205 210
-252 244 -37 26 -82 64 -132 111 -6 6 -33 26 -60 45 -27 19 -64 46 -82 60 -18
14 -79 58 -136 98 -57 40 -125 89 -153 109 -44 32 -58 37 -120 40 -50 3 -75 0
-87 -10z"/>
<path d="M596 2261 c-4 -7 -5 -15 -2 -18 9 -9 19 4 14 18 -4 11 -6 11 -12 0z"/>
<path d="M590 2210 c0 -24 27 -37 43 -21 8 8 6 15 -9 26 -26 20 -34 19 -34 -5z"/>
<path d="M1034 2012 c-15 -23 -15 -25 0 -19 10 4 35 -2 58 -14 22 -11 43 -18
46 -15 3 3 0 6 -6 6 -7 0 -12 5 -12 10 0 6 12 10 28 10 l27 1 -28 24 c-37 33
-90 31 -113 -3z"/>
<path d="M7490 17751 c0 -10 -1 -9 160 -52 334 -89 388 -104 460 -133 36 -15
81 -31 100 -36 70 -18 409 -143 645 -239 28 -12 142 -57 255 -101 201 -79 257
-103 328 -136 39 -19 75 -34 78 -34 3 0 65 -29 137 -64 130 -63 166 -80 279
-129 31 -14 94 -43 140 -65 45 -23 124 -59 173 -82 50 -22 97 -45 105 -50 8
-5 29 -17 45 -25 17 -9 39 -21 50 -28 43 -27 202 -121 235 -140 19 -10 54 -30
78 -44 l42 -25 0 696 0 696 -1655 0 c-951 0 -1655 -4 -1655 -9z"/>
<path d="M8490 14874 c-56 -40 -90 -110 -90 -184 0 -19 -6 -64 -15 -100 -44
-195 -49 -259 -51 -578 -1 -189 -6 -318 -12 -324 -6 -6 -23 -6 -48 1 -133 37
-386 -25 -549 -134 -189 -127 -285 -230 -412 -443 -84 -140 -90 -153 -112
-246 -30 -126 -28 -371 5 -472 15 -48 189 -384 213 -411 41 -46 131 -110 207
-145 l69 -33 180 1 c229 1 307 16 452 91 57 29 114 53 127 53 58 0 153 -101
231 -246 81 -152 187 -258 293 -295 128 -45 300 32 452 201 80 89 120 149 175
265 51 106 77 204 100 377 15 111 16 147 6 285 -6 87 -16 185 -21 218 -16 105
-30 229 -30 272 0 45 13 64 61 89 29 14 119 126 119 146 0 6 19 38 42 72 114
168 140 210 198 321 161 304 164 313 162 389 -1 38 -8 84 -17 102 -24 51 -78
92 -132 100 -84 13 -321 -13 -548 -59 -33 -7 -97 -12 -142 -12 -77 0 -83 2
-113 30 -17 17 -39 45 -47 64 -9 18 -40 59 -68 90 -58 63 -135 163 -179 231
-59 90 -202 217 -308 271 -57 29 -165 36 -198 13z"/>
<path d="M5375 14638 c-22 -5 -71 -15 -110 -23 -38 -7 -90 -20 -115 -30 -68
-25 -237 -110 -274 -138 -6 -4 -32 -21 -57 -37 -26 -17 -89 -72 -141 -123 -82
-80 -100 -105 -142 -190 -45 -91 -49 -105 -50 -175 -1 -63 3 -86 24 -127 21
-42 34 -55 83 -79 48 -24 68 -28 125 -27 80 2 94 5 287 66 136 43 157 47 225
43 102 -6 183 -43 247 -112 102 -110 223 -260 223 -276 0 -5 9 -15 20 -22 11
-7 20 -16 20 -21 0 -17 82 -116 167 -202 77 -78 103 -97 194 -142 72 -36 126
-56 174 -64 39 -6 84 -13 101 -16 41 -6 132 18 215 57 108 50 223 187 254 302
59 213 2 449 -174 717 -54 83 -84 117 -211 237 -68 63 -193 164 -204 164 -4 0
-19 8 -34 19 -104 71 -233 141 -261 141 -7 0 -25 7 -41 15 -72 37 -446 67
-545 43z"/>
<path d="M3732 12822 c-13 -2 -36 -21 -53 -45 -60 -83 -97 -273 -102 -527 -2
-109 -1 -117 25 -160 28 -46 96 -122 122 -137 8 -4 50 -42 94 -83 94 -88 93
-87 196 -168 173 -135 332 -252 400 -296 55 -35 143 -101 232 -173 23 -18 44
-33 48 -33 3 0 34 -19 67 -42 79 -55 93 -65 169 -113 35 -22 77 -51 94 -66 38
-31 126 -88 185 -120 126 -68 254 -131 316 -155 39 -15 82 -36 97 -46 14 -10
31 -18 37 -18 6 0 27 -9 48 -19 55 -28 139 -66 213 -96 36 -15 88 -37 115 -50
120 -56 164 -75 170 -75 3 0 30 -11 58 -23 152 -69 316 -123 472 -157 72 -16
144 -33 160 -38 17 -5 66 -17 110 -26 181 -37 483 -98 530 -106 28 -5 93 -18
145 -30 99 -22 142 -30 300 -55 319 -51 442 -60 1101 -82 156 -5 168 -4 220
18 123 51 277 188 328 292 40 82 49 106 78 212 38 140 40 169 10 199 -18 17
-40 26 -83 32 -58 7 -376 0 -644 -14 -237 -13 -764 3 -925 27 -77 12 -176 26
-220 31 -44 5 -131 18 -194 30 -62 11 -126 20 -141 20 -44 0 -561 133 -625
161 -11 4 -47 15 -80 23 -66 17 -254 85 -322 116 -24 11 -45 20 -48 20 -3 0
-85 34 -183 76 -209 90 -371 167 -577 277 -82 44 -175 93 -205 109 -30 16 -73
40 -95 54 -22 13 -74 41 -115 62 -41 20 -100 54 -130 73 -30 20 -60 38 -66 40
-14 5 -247 162 -259 175 -5 5 -30 23 -54 40 -25 16 -67 49 -95 74 -28 25 -69
59 -91 75 -22 16 -65 51 -95 78 -30 26 -59 51 -65 55 -12 9 -164 141 -197 172
-67 63 -185 182 -231 234 -142 163 -177 188 -245 178z"/>
<path d="M0 7243 c0 -98 5 -209 11 -248 14 -98 14 -289 0 -360 -7 -33 -11
-109 -9 -170 l3 -110 42 60 c23 33 56 88 73 122 31 61 31 61 33 240 1 142 -2
188 -15 228 -9 28 -19 78 -23 113 -7 75 -47 201 -81 260 -14 23 -27 42 -29 42
-3 0 -5 -80 -5 -177z"/>
<path d="M10734 4486 c-20 -31 -10 -64 38 -123 l29 -37 -3 90 c-3 83 -4 89
-25 92 -14 2 -27 -5 -39 -22z"/>
<path d="M691 1150 c-51 -5 -86 -12 -91 -21 -18 -28 -25 -196 -22 -504 2 -241
-1 -352 -13 -450 -8 -71 -15 -140 -15 -152 0 -23 0 -23 169 -23 l168 0 7 128
c3 70 4 142 0 160 -4 19 -2 32 3 32 13 0 23 -97 23 -221 l0 -99 610 0 c481 0
610 3 610 13 0 6 -6 32 -15 57 -56 174 -133 435 -155 530 -6 24 -20 59 -31 76
-10 17 -19 41 -19 52 0 12 -6 41 -14 64 -78 244 -89 265 -162 314 l-56 37
-212 8 c-257 9 -671 9 -785 -1z m125 -231 c10 -12 18 -30 16 -41 -2 -10 2 -25
8 -33 7 -8 9 -19 5 -25 -3 -5 5 -14 19 -20 18 -7 24 -14 19 -26 -5 -13 -3 -15
7 -9 10 6 11 4 5 -11 -17 -41 -18 -133 -1 -174 21 -52 21 -100 1 -100 -12 0
-15 -17 -15 -90 0 -72 -4 -94 -17 -109 -36 -39 -42 -49 -46 -77 -2 -16 -2 14
1 66 3 52 6 144 6 203 1 91 4 111 19 121 20 15 22 58 3 101 l-13 30 -15 -45
-16 -45 -1 78 c-1 54 3 77 11 77 7 0 2 7 -10 16 -18 12 -20 19 -12 35 7 12 7
19 1 19 -12 0 -41 28 -41 40 0 11 29 40 39 40 4 0 16 -9 27 -21z m104 -22 c0
-15 -7 -18 -32 -15 -41 4 -45 19 -10 39 29 16 42 9 42 -24z m135 3 c14 -6 5
-9 -35 -9 -40 0 -49 3 -35 9 11 5 27 9 35 9 8 0 24 -4 35 -9z m-15 -36 c0 -9
-5 -14 -12 -12 -18 6 -21 28 -4 28 9 0 16 -7 16 -16z"/>
<path d="M10210 34 c-6 -14 -10 -27 -10 -30 0 -2 27 -4 60 -4 65 0 74 10 38
41 -34 28 -76 25 -88 -7z"/>
</g>
</svg>
